# xmcd CD database file
#
# Track frame offsets:
#	150
#	34660
#	49937
#	65238
#	81003
#	98632
#	108879
#	122967
#	134386
#	154071
#	163499
#
# Disc length: 2359 seconds
#
# Revision: 0
# Processed by: cddbd v1.5PL3 Copyright (c) Steve Scherf et al.
# Submitted via: CDex 1.51
#
DISCID=9709350b
DTITLE=alejandro franov - rio
DYEAR=2004
DGENRE=Ambient
TTITLE0=dormida
TTITLE1=danza al sol
TTITLE2=quieto el gato
TTITLE3=almas del corral
TTITLE4=el fin del ombligo
TTITLE5=quiero entrar
TTITLE6=en un laberinto
TTITLE7=el ojo del sol
TTITLE8=de tus labios
TTITLE9=amaneceres
TTITLE10=ni mi sombra
EXTD=YEAR: 2004
EXTT0=
EXTT1=
EXTT2=
EXTT3=
EXTT4=
EXTT5=
EXTT6=
EXTT7=
EXTT8=
EXTT9=
EXTT10=
PLAYORDER=
